<?xml version="1.0" encoding="iso-8859-1"?>
<!-- Uploaded to: SVG Repo, www.svgrepo.com, Generator: SVG Repo Mixer Tools -->
<!DOCTYPE svg PUBLIC "-//W3C//DTD SVG 1.1//EN" "http://www.w3.org/Graphics/SVG/1.1/DTD/svg11.dtd">
<svg fill="#000000" height="800px" width="800px" version="1.1" id="Capa_1" xmlns="http://www.w3.org/2000/svg" xmlns:xlink="http://www.w3.org/1999/xlink" 
	 viewBox="0 0 454.612 454.612" xml:space="preserve">
<g id="XMLID_169_">
	<circle id="XMLID_846_" cx="280.58" cy="37.417" r="37.417"/>
	<g id="XMLID_447_">
		<path id="XMLID_449_" d="M371.861,129.271c-0.118-23.44-19.284-42.51-42.724-42.51H223.686l-7.869,40.426l-1.808,9.409
			c-2.338,12.166-12.927,20.655-24.853,20.782l-0.525,104.528c-0.05,9.971,7.992,18.095,17.963,18.145c0.031,0,0.062,0,0.093,0
			c9.928,0,18.002-8.023,18.052-17.963l0.666-132.636c0.01-1.976,1.617-3.57,3.592-3.564c1.975,0.005,3.572,1.608,3.572,3.583
			l0.008,303.476c0,11.965,9.7,21.665,21.665,21.665c11.965,0,21.665-9.7,21.665-21.665V264.466c0-2.589,2.099-4.688,4.688-4.688
			c2.578,0,4.666,2.089,4.666,4.666v168.504c0,11.965,9.7,21.665,21.665,21.665s21.665-9.7,21.665-21.665l-0.385-303.674
			c-0.003-2.085,1.685-3.777,3.77-3.779c2.085-0.003,3.777,1.685,3.779,3.77c0,0.049,0,0.1-0.001,0.15l-0.122,132.567
			c-0.01,9.971,8.066,18.062,18.037,18.07c0.006,0,0.011,0,0.017,0c9.963,0,18.045-8.072,18.054-18.037l0.122-132.636
			C371.861,129.342,371.861,129.307,371.861,129.271z"/>
	</g>
	<path id="XMLID_1098_" d="M128.958,79.727c8.294,0,15.995-2.535,22.375-6.87l8.776-45.661c0.569-2.964,1.487-5.771,2.69-8.397
		C155.758,7.514,143.239,0,128.958,0c-22.016,0-39.863,17.848-39.863,39.864C89.095,61.879,106.942,79.727,128.958,79.727z"/>
	<g id="XMLID_446_">
		<path id="XMLID_455_" d="M200.006,18.556c-10.416-2.076-20.548,4.676-22.63,15.093l-13.778,68.964l-39.811,4.235l26.105-11.612
			l-41.149-0.051c-13.84,0-25.059,11.219-25.059,25.059l-0.933,312.642c-0.033,11.965,9.639,21.692,21.604,21.727
			c0.021,0,0.042,0,0.063,0c11.937,0,21.63-9.66,21.664-21.604c0.517-182.904,0.534-171.142,0.386-172.731h8.881l0.013,172.671
			c0.001,11.965,9.701,21.664,21.667,21.663c11.965-0.001,21.664-9.701,21.663-21.667l0.998-276.937l-51.834-10.907l53.87-5.731
			c8.363-0.89,15.179-7.11,16.826-15.357l16.548-82.826C217.179,30.769,210.423,20.637,200.006,18.556z"/>
	</g>
</g>
</svg>